<?xml version="1.0" standalone="no"?>
<!DOCTYPE svg PUBLIC "-//W3C//DTD SVG 20010904//EN"
 "http://www.w3.org/TR/2001/REC-SVG-20010904/DTD/svg10.dtd">
<svg version="1.0" xmlns="http://www.w3.org/2000/svg"
 width="50.000000pt" height="82.000000pt" viewBox="0 0 50.000000 82.000000"
 preserveAspectRatio="xMidYMid meet">
<metadata>
Created by potrace 1.11, written by Peter Selinger 2001-2013
</metadata>
<g transform="translate(0.000000,82.000000) scale(0.100000,-0.100000)"
fill="#551111" stroke="none">
<path d="M203 799 c-23 -4 -54 -16 -70 -25 -111 -69 -153 -171 -118 -290 16
-55 224 -474 235 -474 10 0 230 447 241 490 42 171 -112 332 -288 299z m142
-37 c79 -39 128 -116 128 -204 0 -49 -8 -73 -58 -178 -64 -132 -95 -167 -38
-42 35 76 73 177 73 194 0 4 -16 8 -35 8 -29 0 -36 -5 -50 -34 -22 -47 -60
-70 -115 -70 -55 0 -93 23 -115 70 -14 29 -21 34 -51 34 -34 0 -35 -1 -29 -31
8 -37 49 -137 81 -201 14 -27 21 -48 16 -48 -13 0 -110 200 -121 252 -40 178
151 330 314 250z"/>
<path d="M205 648 c-107 -58 -36 -232 77 -189 60 23 87 96 58 152 -22 40 -93
60 -135 37z m102 -30 c42 -45 31 -112 -22 -134 -60 -25 -114 10 -115 75 0 73
89 111 137 59z"/>
</g>
</svg>
